<svg width="27" height="20" viewBox="0 0 27 20" fill="none" xmlns="http://www.w3.org/2000/svg">
<path d="M0 1C0 0.447715 0.447715 0 1 0H26C26.5523 0 27 0.447715 27 1C27 1.55228 26.5523 2 26 2H0.999999C0.447715 2 0 1.55228 0 1Z" fill="white"/>
<path d="M0 10C0 9.44772 0.447715 9 1 9H26C26.5523 9 27 9.44772 27 10C27 10.5523 26.5523 11 26 11H0.999999C0.447715 11 0 10.5523 0 10Z" fill="white"/>
<path d="M0 19C0 18.4477 0.447715 18 1 18H26C26.5523 18 27 18.4477 27 19C27 19.5523 26.5523 20 26 20H0.999999C0.447715 20 0 19.5523 0 19Z" fill="white"/>
</svg>
